<svg width="256" height="27" viewBox="0 0 256 27" fill="none" xmlns="http://www.w3.org/2000/svg">
<line x1="32" y1="26.5" x2="256" y2="26.5" stroke="#91A3AD"/>
<path d="M236.833 12C236.833 12 240.167 5.33335 246 5.33335C251.833 5.33335 255.167 12 255.167 12C255.167 12 251.833 18.6667 246 18.6667C240.167 18.6667 236.833 12 236.833 12Z" stroke="#91A3AD" stroke-linecap="round" stroke-linejoin="round"/>
<path d="M246 14.5C247.381 14.5 248.5 13.3807 248.5 12C248.5 10.6193 247.381 9.5 246 9.5C244.619 9.5 243.5 10.6193 243.5 12C243.5 13.3807 244.619 14.5 246 14.5Z" stroke="#91A3AD" stroke-linecap="round" stroke-linejoin="round"/>
<path d="M37.822 16.14C39.838 16.14 41.14 15.09 41.14 13.508C41.14 9.882 36.044 11.002 36.044 8.538C36.044 7.74 36.688 7.166 37.864 7.166C38.9 7.166 39.558 7.614 39.852 8.594L40.986 8.16C40.622 6.9 39.544 6.13 37.906 6.13C36.002 6.13 34.854 7.166 34.854 8.65C34.854 12.01 39.936 10.946 39.936 13.55C39.936 14.502 39.152 15.09 37.906 15.09C36.674 15.09 35.82 14.474 35.54 13.396L34.406 13.83C34.826 15.3 36.072 16.14 37.822 16.14ZM43.5446 12.752H49.6766C49.6906 12.612 49.7046 12.36 49.7046 12.15C49.7046 10.204 48.2906 8.454 46.0646 8.454C43.9786 8.454 42.3406 10.176 42.3406 12.318C42.3406 14.516 43.8806 16.168 46.1486 16.168C47.8986 16.168 48.9206 15.412 49.4666 14.362L48.4306 13.732C48.0666 14.586 47.3946 15.048 46.1906 15.048C44.8326 15.048 43.7546 14.124 43.5446 12.752ZM43.5586 11.716C43.7826 10.316 44.8606 9.49 46.1066 9.49C47.3386 9.49 48.3046 10.33 48.4866 11.716H43.5586ZM54.9791 8.468C53.8031 8.468 52.9071 9 52.4311 9.7V8.622H51.3111V16H52.5011V11.436C52.5151 10.442 53.4111 9.532 54.6711 9.532C55.9871 9.518 56.7851 10.33 56.7851 11.702V16H57.9751V11.492C57.9751 9.658 56.8691 8.468 54.9791 8.468ZM63.6777 8.468C62.5577 8.468 61.6897 8.958 61.1997 9.602V5.766H60.0097V16H61.1997V11.436C61.2137 10.442 62.1097 9.532 63.3697 9.532C64.6857 9.518 65.4837 10.33 65.4837 11.702V16H66.6737V11.492C66.6737 9.658 65.5677 8.468 63.6777 8.468ZM74.6583 8.622V10.05C74.0983 9.098 73.1323 8.538 71.8863 8.538C69.8003 8.538 68.2603 10.12 68.2603 12.304C68.2603 14.516 69.7863 16.154 71.8863 16.154C73.1323 16.154 74.0983 15.566 74.6583 14.586V16H75.7643V8.622H74.6583ZM72.0263 15.104C70.5423 15.104 69.4363 13.914 69.4363 12.304C69.4363 10.722 70.5423 9.518 72.0263 9.518C73.5663 9.518 74.6163 10.666 74.6163 12.304C74.6163 13.956 73.5523 15.104 72.0263 15.104Z" fill="#91A3AD"/>
<path d="M14.25 8.25H3.75C2.92157 8.25 2.25 8.92157 2.25 9.75V15C2.25 15.8284 2.92157 16.5 3.75 16.5H14.25C15.0784 16.5 15.75 15.8284 15.75 15V9.75C15.75 8.92157 15.0784 8.25 14.25 8.25Z" stroke="#ED1164" stroke-width="1.5" stroke-linecap="round" stroke-linejoin="round"/>
<path d="M5.25 8.25V5.25C5.25 4.25544 5.64509 3.30161 6.34835 2.59835C7.05161 1.89509 8.00544 1.5 9 1.5C9.99456 1.5 10.9484 1.89509 11.6516 2.59835C12.3549 3.30161 12.75 4.25544 12.75 5.25V8.25" stroke="#ED1164" stroke-width="1.5" stroke-linecap="round" stroke-linejoin="round"/>
</svg>
